PathFileType	4	(x/y/z)	S09_P20_T27
DataRate	CameraRate	NumFrames	NumMarkers	Units	OrigDataRate	OrigDataStartFrame	OrigNumFrames
240	240	10	51	mm	240	1	394
Frame#	Time	Sternum			R.Acromium			L.Acromium			Top.Head			R.ASIS			L.ASIS			R.PSIS			L.PSIS			R.Great.Tro			L.Great.Tro			R.Iliac.Crest			L.Iliac.Crest			V.Sacral			R.Thigh.Upper.Post			R.Thigh.Lower.Ant			R.Thigh.Lower.Post			R.Thigh.Upper.Ant			R.Knee.Lat			R.Knee.Med			R.Shank.Upper.Post			R.Shank.Lower.Ant			R.Shank.Lower.Post			R.Shank.Upper.Ant			R.Ankle.Lat			R.Ankle.Med			R.Heel.Upper			R.Heel.Med			R.Heel.Lat			R.Toe.Lat			R.Toe.Med			R.Toe.Tip			L.Thigh.Upper.Post			L.Thigh.Lower.Ant			L.Thigh.Lower.Post			L.Thigh.Upper.Ant			L.Knee.Lat			L.Knee.Med			L.Shank.Upper.Post			L.Shank.Lower.Ant			L.Shank.Lower.Post			L.Shank.Upper.Ant			L.Ankle.Lat			L.Ankle.Med			L.Heel.Upper			L.Heel.Med			L.Heel.Lat			L.Toe.Lat			L.Toe.Med			L.Toe.Tip			Cervical.Spine			Back			
		X1	Y1	Z1	X2	Y2	Z2	X3	Y3	Z3	X4	Y4	Z4	X5	Y5	Z5	X6	Y6	Z6	X7	Y7	Z7	X8	Y8	Z8	X9	Y9	Z9	X10	Y10	Z10	X11	Y11	Z11	X12	Y12	Z12	X13	Y13	Z13	X14	Y14	Z14	X15	Y15	Z15	X16	Y16	Z16	X17	Y17	Z17	X18	Y18	Z18	X19	Y19	Z19	X20	Y20	Z20	X21	Y21	Z21	X22	Y22	Z22	X23	Y23	Z23	X24	Y24	Z24	X25	Y25	Z25	X26	Y26	Z26	X27	Y27	Z27	X28	Y28	Z28	X29	Y29	Z29	X30	Y30	Z30	X31	Y31	Z31	X32	Y32	Z32	X33	Y33	Z33	X34	Y34	Z34	X35	Y35	Z35	X36	Y36	Z36	X37	Y37	Z37	X38	Y38	Z38	X39	Y39	Z39	X40	Y40	Z40	X41	Y41	Z41	X42	Y42	Z42	X43	Y43	Z43	X44	Y44	Z44	X45	Y45	Z45	X46	Y46	Z46	X47	Y47	Z47	X48	Y48	Z48	X49	Y49	Z49	X50	Y50	Z50	X51	Y51	Z51	

1	0	NaN	NaN	NaN	-1450.7	1436.1	514.45	-1481.4	1430	205.59	-1435	1737.5	347.77	NaN	NaN	NaN	NaN	NaN	NaN	-1620.1	1048.4	403.61	-1616.3	1043.2	314.12	-1488.8	936.89	553.69	-1477	926.21	165.15	-1476.8	1097.9	520.83	-1505.4	1110.3	200.21	-1636.2	1012	356.08	-1544.4	695.27	523.63	-1493	584.71	484.07	-1573.3	609.03	497.79	-1472.3	670.32	510.47	-1547.3	512.06	477.25	NaN	NaN	NaN	NaN	NaN	NaN	NaN	NaN	NaN	-1709.4	303.56	476.21	NaN	NaN	NaN	-1759.5	124.98	459.82	-1730.7	123.83	373.03	-1828.7	112.27	410.86	-1822.6	77.196	384.85	NaN	NaN	NaN	NaN	NaN	NaN	-1626	44.824	397.56	-1576.7	52.849	444.74	-1471.1	662.33	212.31	NaN	NaN	NaN	-1432.8	580.65	228.2	-1407.2	668.34	180.29	-1353.2	513.69	214.37	-1333.3	525.39	346.51	-1342.6	372.88	204.93	-1247.2	317.17	211.33	-1311.1	302.42	210.06	-1280.2	387.64	207.21	-1199.3	124.4	229.73	-1173.4	135.84	321.26	NaN	NaN	NaN	-1212	46.879	322.7	-1226.9	32.009	265.01	-1078.8	107.19	189.11	-1040.6	141.12	291.87	-1011.5	174.93	225.87	-1555.7	1484.1	375.63	-1600.9	1220.3	367.55
2	0.0041667	NaN	NaN	NaN	-1445.7	1435.4	513.72	-1476.4	1429.4	204.84	-1430.5	1737	347.2	NaN	NaN	NaN	NaN	NaN	NaN	-1614.9	1047.7	403.05	-1611.2	1042.6	313.56	-1483.8	936.25	553.1	-1471.3	925.64	164.73	-1471.6	1097.2	520.25	-1500.4	1109.8	199.62	-1631.1	1011.4	355.54	-1539.5	694.58	523.1	-1488.1	583.97	483.72	-1568.3	608.27	497.29	-1467.4	669.63	510.05	-1542.6	511.32	476.84	NaN	NaN	NaN	NaN	NaN	NaN	NaN	NaN	NaN	-1706.5	304.31	475.93	NaN	NaN	NaN	-1758.2	126.33	459.75	-1729.5	124.9	372.97	-1827.7	114.26	410.79	-1822	79.16	384.73	NaN	NaN	NaN	NaN	NaN	NaN	-1625.7	44.809	397.64	-1576.4	52.714	444.8	-1465.1	661.86	211.67	NaN	NaN	NaN	-1426.9	580.22	227.78	-1401.5	668.11	179.88	-1347.3	513.16	214.39	-1327.7	525.41	346.34	-1338.1	372.33	204.87	-1243.4	315.66	211.68	-1307.4	301.53	210.09	-1275.6	386.43	207.47	-1197.3	122.87	229.97	-1171.9	133.75	321.35	-1241.4	59.635	291.93	-1211.2	46.288	322.73	-1226	31.526	264.95	-1076.8	104.63	189.92	-1039	138.24	292.78	-1009.3	171.89	227.05	-1550.9	1483.5	374.86	-1595.8	1219.6	366.81
3	0.0083333	NaN	NaN	NaN	-1440.6	1434.7	512.95	-1471.3	1428.8	204.05	-1425.9	1736.5	346.59	NaN	NaN	NaN	NaN	NaN	NaN	-1609.5	1047.1	402.45	-1605.8	1042	312.97	-1478.6	935.58	552.47	-1465.4	925.05	164.29	-1466.2	1096.5	519.64	-1495.2	1109.3	199	-1625.8	1010.7	354.96	-1534.3	693.83	522.54	-1482.9	583.19	483.33	-1562.9	607.47	496.75	-1462.3	668.91	509.59	-1537.5	510.53	476.42	NaN	NaN	NaN	NaN	NaN	NaN	NaN	NaN	NaN	-1703.3	305.12	475.64	NaN	NaN	NaN	-1756.9	127.77	459.67	-1728.3	126.03	372.89	-1826.6	116.41	410.7	-1821.2	81.267	384.58	NaN	NaN	NaN	NaN	NaN	NaN	-1625.4	44.788	397.73	-1576	52.575	444.86	-1458.9	661.38	211.01	NaN	NaN	NaN	-1420.7	579.77	227.36	-1395.5	667.85	179.47	-1341.2	512.6	214.4	-1321.8	525.42	346.15	-1333.4	371.77	204.81	-1239.4	314.1	212.04	-1303.5	300.62	210.12	-1270.8	385.18	207.72	-1195.2	121.31	230.21	-1170.4	131.62	321.45	-1239.7	59.266	291.82	-1210.4	45.708	322.77	-1225	31.077	264.89	-1074.8	101.96	190.74	-1037.3	135.2	293.69	-1007	168.68	228.23	-1545.9	1482.9	374.06	-1590.6	1218.9	366.04
4	0.0125	NaN	NaN	NaN	-1435.3	1433.9	512.15	-1465.9	1428.2	203.24	-1421	1736	345.97	NaN	NaN	NaN	NaN	NaN	NaN	-1603.9	1046.4	401.82	-1600.3	1041.3	312.34	-1473.1	934.88	551.81	-1459.3	924.43	163.81	-1460.7	1095.8	518.99	-1489.8	1108.7	198.34	-1620.2	1010	354.34	-1528.9	693.05	521.94	-1477.5	582.38	482.92	-1557.3	606.62	496.2	-1456.9	668.16	509.09	-1532.1	509.71	475.98	NaN	NaN	NaN	NaN	NaN	NaN	NaN	NaN	NaN	-1699.9	305.97	475.32	NaN	NaN	NaN	-1755.5	129.3	459.56	-1727	127.22	372.81	-1825.5	118.71	410.58	-1820.4	83.521	384.4	NaN	NaN	NaN	NaN	NaN	NaN	-1625.1	44.76	397.81	-1575.7	52.433	444.93	-1452.6	660.88	210.34	NaN	NaN	NaN	-1414.3	579.31	226.93	-1389.4	667.58	179.05	-1335	512.02	214.39	-1315.8	525.4	345.98	-1328.6	371.19	204.75	-1235.3	312.51	212.4	-1299.4	299.7	210.16	-1265.9	383.9	207.98	-1193	119.73	230.45	-1168.8	129.46	321.56	-1237.9	58.937	291.72	-1209.5	45.15	322.81	-1224	30.678	264.85	-1072.7	99.2	191.57	-1035.5	132.04	294.59	-1004.6	165.32	229.39	-1540.7	1482.3	373.23	-1585.1	1218.1	365.23
5	0.016667	NaN	NaN	NaN	-1429.8	1433.2	511.33	-1460.4	1427.6	202.4	-1416	1735.5	345.33	NaN	NaN	NaN	NaN	NaN	NaN	-1598.2	1045.7	401.16	-1594.5	1040.6	311.68	-1467.6	934.16	551.12	-1452.9	923.81	163.29	-1454.9	1095	518.32	-1484.3	1108.2	197.65	-1614.5	1009.3	353.7	-1523.2	692.24	521.3	-1471.8	581.55	482.48	-1551.5	605.74	495.61	-1451.3	667.38	508.56	-1526.5	508.84	475.54	NaN	NaN	NaN	NaN	NaN	NaN	NaN	NaN	NaN	-1696.4	306.86	475	NaN	NaN	NaN	-1754	130.93	459.44	-1725.5	128.47	372.71	-1824.2	121.17	410.42	-1819.5	85.924	384.18	NaN	NaN	NaN	NaN	NaN	NaN	-1624.8	44.724	397.89	-1575.3	52.29	444.99	-1446.1	660.37	209.66	NaN	NaN	NaN	-1407.8	578.85	226.49	-1383.1	667.3	178.64	-1328.6	511.43	214.38	-1309.6	525.36	345.81	-1323.6	370.6	204.71	-1231.1	310.91	212.75	-1295.3	298.77	210.2	-1260.8	382.62	208.22	-1190.8	118.16	230.69	-1167	127.3	321.69	-1236.1	58.659	291.62	-1208.6	44.627	322.86	-1223.1	30.343	264.81	-1070.6	96.371	192.4	-1033.7	128.76	295.47	-1002.1	161.82	230.51	-1535.4	1481.6	372.37	-1579.6	1217.4	364.39
6	0.020833	NaN	NaN	NaN	-1424.3	1432.4	510.49	-1454.8	1426.9	201.54	-1410.9	1734.9	344.66	NaN	NaN	NaN	NaN	NaN	NaN	-1592.3	1044.9	400.46	-1588.7	1039.9	310.98	-1461.8	933.43	550.4	-1446.5	923.18	162.73	-1449.1	1094.3	517.62	-1478.6	1107.6	196.93	-1608.7	1008.6	353.02	-1517.3	691.38	520.64	-1465.9	580.69	482.01	-1545.4	604.81	495.01	-1445.4	666.59	507.99	-1520.7	507.94	475.09	NaN	NaN	NaN	NaN	NaN	NaN	NaN	NaN	NaN	-1692.7	307.81	474.66	NaN	NaN	NaN	-1752.4	132.64	459.29	-1723.9	129.78	372.6	-1822.9	123.79	410.23	-1818.4	88.482	383.93	NaN	NaN	NaN	NaN	NaN	NaN	-1624.5	44.68	397.98	-1575	52.147	445.05	-1439.4	659.87	208.98	NaN	NaN	NaN	-1401.2	578.37	226.06	-1376.6	667	178.24	-1322.2	510.83	214.34	-1303.4	525.29	345.64	-1318.6	370	204.67	-1226.8	309.32	213.08	-1291.1	297.84	210.25	-1255.7	381.33	208.45	-1188.4	116.61	230.93	-1165.2	125.16	321.82	-1234.2	58.446	291.54	-1207.6	44.147	322.92	-1222	30.08	264.79	-1068.5	93.488	193.22	-1031.7	125.37	296.31	-999.51	158.2	231.59	-1530	1481	371.49	-1573.8	1216.6	363.53
7	0.025	NaN	NaN	NaN	-1418.7	1431.6	509.63	-1449.1	1426.3	200.66	-1405.8	1734.4	343.99	NaN	NaN	NaN	NaN	NaN	NaN	-1586.4	1044.2	399.73	-1582.7	1039.2	310.25	-1456	932.69	549.65	-1439.8	922.56	162.14	-1443.2	1093.6	516.9	-1472.8	1107	196.18	-1602.8	1007.8	352.3	-1511.2	690.49	519.96	-1459.7	579.8	481.52	-1539.1	603.84	494.39	-1439.4	665.77	507.39	-1514.5	507	474.64	NaN	NaN	NaN	NaN	NaN	NaN	NaN	NaN	NaN	-1688.8	308.8	474.31	NaN	NaN	NaN	-1750.6	134.45	459.12	-1722.1	131.15	372.47	-1821.4	126.57	409.99	-1817.3	91.198	383.63	NaN	NaN	NaN	NaN	NaN	NaN	-1624.1	44.625	398.05	-1574.7	52.005	445.11	-1432.7	659.37	208.3	NaN	NaN	NaN	-1394.5	577.9	225.62	-1370	666.68	177.86	-1315.7	510.22	214.29	-1297.1	525.19	345.47	-1313.5	369.4	204.63	-1222.4	307.75	213.4	-1286.9	296.93	210.31	-1250.6	380.06	208.67	-1186.1	115.1	231.15	-1163.2	123.06	321.97	-1232.3	58.307	291.47	-1206.6	43.715	322.98	-1221	29.897	264.78	-1066.4	90.569	194.02	-1029.8	121.9	297.11	-996.85	154.46	232.61	-1524.6	1480.3	370.59	-1568	1215.8	362.64
8	0.029167	NaN	NaN	NaN	-1413	1430.8	508.76	-1443.4	1425.7	199.76	-1400.6	1733.9	343.3	NaN	NaN	NaN	NaN	NaN	NaN	-1580.4	1043.5	398.97	-1576.6	1038.4	309.48	-1450	931.94	548.87	-1433.1	921.95	161.5	-1437.2	1092.8	516.15	-1466.9	1106.5	195.41	-1596.7	1007.1	351.55	-1504.9	689.57	519.25	-1453.3	578.9	481.01	-1532.6	602.84	493.76	-1433.2	664.95	506.76	-1508.2	506.03	474.2	NaN	NaN	NaN	NaN	NaN	NaN	NaN	NaN	NaN	-1684.7	309.84	473.96	NaN	NaN	NaN	-1748.8	136.35	458.93	-1720.2	132.57	372.34	-1819.8	129.53	409.72	-1816	94.079	383.28	NaN	NaN	NaN	NaN	NaN	NaN	-1623.7	44.56	398.13	-1574.4	51.864	445.17	-1426	658.88	207.63	NaN	NaN	NaN	-1387.9	577.44	225.17	-1363.4	666.36	177.48	-1309.2	509.63	214.2	-1290.8	525.07	345.3	-1308.4	368.82	204.6	-1218	306.21	213.68	-1282.5	296.04	210.36	-1245.4	378.81	208.86	-1183.6	113.65	231.37	-1161.2	121.02	322.13	-1230.4	58.249	291.42	-1205.6	43.336	323.05	-1220	29.798	264.77	-1064.3	87.631	194.81	-1027.7	118.35	297.86	-994.13	150.61	233.58	-1519	1479.7	369.68	-1562.2	1215	361.73
9	0.033333	NaN	NaN	NaN	-1407.4	1430.1	507.88	-1437.5	1425.2	198.86	-1395.3	1733.4	342.61	NaN	NaN	NaN	NaN	NaN	NaN	-1574.3	1042.7	398.18	-1570.5	1037.7	308.68	-1444	931.18	548.06	-1426.4	921.35	160.82	-1431.2	1092.1	515.37	-1460.9	1105.9	194.6	-1590.6	1006.3	350.76	-1498.3	688.63	518.52	-1446.6	577.99	480.49	-1525.9	601.8	493.12	-1426.7	664.11	506.1	-1501.6	505.03	473.77	NaN	NaN	NaN	NaN	NaN	NaN	NaN	NaN	NaN	-1680.4	310.94	473.6	NaN	NaN	NaN	-1746.8	138.35	458.71	-1718.1	134.06	372.2	-1818	132.67	409.39	-1814.6	97.13	382.88	NaN	NaN	NaN	NaN	NaN	NaN	-1623.2	44.485	398.21	-1574.1	51.725	445.23	-1419.3	658.41	206.95	NaN	NaN	NaN	-1381.2	576.99	224.72	-1356.7	666.03	177.12	-1302.8	509.04	214.09	-1284.4	524.92	345.11	-1303.3	368.24	204.57	-1213.6	304.73	213.94	-1278.2	295.18	210.42	-1240.3	377.59	209.02	-1181.2	112.25	231.58	-1159.1	119.05	322.31	-1228.5	58.278	291.37	-1204.5	43.015	323.13	-1219	29.787	264.77	-1062.2	84.689	195.57	-1025.6	114.75	298.58	-991.35	146.68	234.48	-1513.4	1479	368.75	-1556.2	1214.2	360.79
10	0.0375	NaN	NaN	NaN	-1401.7	1429.3	506.99	-1431.7	1424.6	197.93	-1390	1732.9	341.91	NaN	NaN	NaN	-1344.2	1012.1	225.14	-1568.2	1042	397.35	-1564.3	1037	307.85	-1437.9	930.43	547.23	-1419.5	920.79	160.1	-1425.1	1091.4	514.57	-1454.8	1105.4	193.77	-1584.5	1005.5	349.94	-1491.6	687.66	517.78	-1439.8	577.07	479.96	-1519	600.74	492.48	-1420.2	663.27	505.41	-1494.7	504.01	473.36	NaN	NaN	NaN	NaN	NaN	NaN	NaN	NaN	NaN	-1675.9	312.1	473.24	NaN	NaN	NaN	-1744.6	140.44	458.47	-1715.9	135.6	372.04	-1816.1	135.98	409.02	-1813	100.36	382.44	NaN	NaN	NaN	NaN	NaN	NaN	-1622.8	44.4	398.28	-1573.8	51.589	445.28	-1412.6	657.95	206.27	NaN	NaN	NaN	-1374.5	576.56	224.26	-1350	665.69	176.77	-1296.5	508.48	213.94	-1278.1	524.75	344.9	-1298.2	367.69	204.54	-1209.1	303.3	214.17	-1273.8	294.37	210.47	-1235.1	376.43	209.14	-1178.7	110.93	231.76	-1156.9	117.17	322.48	-1226.6	58.393	291.34	-1203.5	42.754	323.21	-1218	29.861	264.78	-1060.2	81.758	196.31	-1023.5	111.11	299.26	-988.53	142.67	235.33	-1507.8	1478.4	367.81	-1550.3	1213.5	359.84
